<?xml version="1.0" encoding="iso-8859-1"?>
<!-- Generator: Adobe Illustrator 19.0.0, SVG Export Plug-In . SVG Version: 6.00 Build 0)  -->
<svg version="1.1" id="Layer_1" xmlns="http://www.w3.org/2000/svg" xmlns:xlink="http://www.w3.org/1999/xlink" x="0px" y="0px"
	 viewBox="0 0 512 512" style="enable-background:new 0 0 512 512;" xml:space="preserve">
<g>
	<g>
		<path d="M127.733,179.574H93.528c-4.427,0-8.017,3.589-8.017,8.017s3.589,8.017,8.017,8.017h34.205
			c4.427,0,8.017-3.589,8.017-8.017S132.16,179.574,127.733,179.574z"/>
	</g>
</g>
<g>
	<g>
		<path d="M418.472,179.574h-34.205c-4.427,0-8.017,3.589-8.017,8.017s3.589,8.017,8.017,8.017h34.205
			c4.427,0,8.017-3.589,8.017-8.017S422.899,179.574,418.472,179.574z"/>
	</g>
</g>
<g>
	<g>
		<path d="M495.432,111.165H16.568C7.432,111.165,0,118.597,0,127.733v256.534c0,9.136,7.432,16.568,16.568,16.568h478.864
			c9.136,0,16.568-7.432,16.568-16.568V127.733C512,118.597,504.568,111.165,495.432,111.165z M340.977,161.403h90.247
			c2.683,2.467,6.831,4.409,12.424,5.807c5.106,1.276,11.358,2.139,18.115,2.52v35.719c-6.756,0.382-13.008,1.244-18.113,2.52
			c-5.592,1.398-9.742,3.34-12.425,5.807h-90.247V161.403z M171.023,384.802H16.568c-0.295,0-0.534-0.239-0.534-0.534V366.63h154.99
			V384.802z M171.023,350.597H16.033v-18.171h154.99V350.597z M171.023,316.393H16.033v-18.171h154.99V316.393z M171.023,282.188
			H16.033v-18.171h154.99V282.188z M171.023,213.779H80.776c-2.683-2.467-6.831-4.409-12.425-5.807
			c-5.105-1.276-11.357-2.139-18.113-2.52v-35.719c6.756-0.382,13.008-1.244,18.115-2.52c5.592-1.398,9.741-3.34,12.424-5.807
			h90.247V213.779z M171.023,145.369H76.426c-3.27,0-6.082,1.957-7.329,4.765c-3.128,1.526-12.724,3.786-26.875,3.786
			c-4.427,0-8.017,3.589-8.017,8.017v51.307c0,4.427,3.589,8.017,8.017,8.017c14.151,0,23.748,2.26,26.875,3.786
			c1.247,2.807,4.06,4.765,7.329,4.765h94.597v18.171H16.033v-120.25c0-0.295,0.239-0.534,0.534-0.534h154.455V145.369z
			 M324.944,384.802H187.056V264.017h137.887V384.802z M324.944,247.983H187.056V127.198h137.887V247.983z M495.967,384.267
			c0,0.295-0.239,0.534-0.534,0.534H340.977V366.63h154.99V384.267z M495.967,350.597h-154.99v-18.171h154.99V350.597z
			 M495.967,316.393h-154.99v-18.171h154.99V316.393z M495.967,282.188h-154.99v-18.171h154.99V282.188z M495.967,247.983h-154.99
			v-18.171h94.597c3.27,0,6.082-1.958,7.329-4.765c3.127-1.526,12.723-3.786,26.875-3.786c4.427,0,8.017-3.589,8.017-8.017v-51.307
			c0-4.427-3.589-8.017-8.017-8.017c-14.151,0-23.748-2.26-26.875-3.786c-1.247-2.807-4.06-4.765-7.329-4.765h-94.597v-18.171
			h154.455c0.295,0,0.534,0.239,0.534,0.534V247.983z"/>
	</g>
</g>
<g>
	<g>
		<path d="M281.653,179.574h-51.307c-4.427,0-8.017,3.589-8.017,8.017s3.589,8.017,8.017,8.017h51.307
			c4.427,0,8.017-3.589,8.017-8.017S286.081,179.574,281.653,179.574z"/>
	</g>
</g>
<g>
</g>
<g>
</g>
<g>
</g>
<g>
</g>
<g>
</g>
<g>
</g>
<g>
</g>
<g>
</g>
<g>
</g>
<g>
</g>
<g>
</g>
<g>
</g>
<g>
</g>
<g>
</g>
<g>
</g>
</svg>
